<?xml version="1.0" encoding="UTF-8" standalone="no"?>
<!-- Created with Inkscape (http://www.inkscape.org/) -->

<svg
   width="1002.1582"
   height="536.84137"
   viewBox="0 0 1002.1582 536.84137"
   version="1.1"
   id="svg1"
   xml:space="preserve"
   xmlns:inkscape="http://www.inkscape.org/namespaces/inkscape"
   xmlns:sodipodi="http://sodipodi.sourceforge.net/DTD/sodipodi-0.dtd"
   xmlns="http://www.w3.org/2000/svg"
   xmlns:svg="http://www.w3.org/2000/svg"><sodipodi:namedview
     id="namedview1"
     pagecolor="#ffffff"
     bordercolor="#000000"
     borderopacity="0.25"
     inkscape:showpageshadow="2"
     inkscape:pageopacity="0.0"
     inkscape:pagecheckerboard="0"
     inkscape:deskcolor="#d1d1d1"
     inkscape:document-units="px"><inkscape:page
       x="0"
       y="0"
       width="1002.1582"
       height="536.84137"
       id="page2"
       margin="0"
       bleed="0" /></sodipodi:namedview><defs
     id="defs1"><inkscape:path-effect
       effect="fillet_chamfer"
       id="path-effect8"
       is_visible="true"
       lpeversion="1"
       nodesatellites_param="F,0,0,1,0,22.14428,0,1 @ F,0,0,1,0,13.926273,0,1 @ F,0,0,1,0,13.926224,0,1 @ F,0,0,1,0,12.371506,0,1"
       radius="0"
       unit="px"
       method="auto"
       mode="F"
       chamfer_steps="1"
       flexible="false"
       use_knot_distance="true"
       apply_no_radius="true"
       apply_with_radius="true"
       only_selected="false"
       hide_knots="false" /></defs><g
     inkscape:label="Camada 1"
     inkscape:groupmode="layer"
     id="layer1"
     transform="translate(3.1084448e-6,-68.054932)"><path
       id="rect1"
       style="fill:#24a652;fill-opacity:1;stroke:none;stroke-width:0.497531"
       d="m 1088.9868,75.164148 c -1.7344,0.0274 -3.3881,0.409424 -4.9736,1.046875 H 738.89647 v -0.08789 A 58.551169,58.424999 0 0 0 680.34451,134.54891 V 259.06454 H 541.72354 v -33.06836 h 0.67137 a 12.238956,12.212583 0 0 0 12.2373,-12.21289 V 87.203211 A 12.044621,12.018667 0 0 0 542.58868,75.18368 H 350.17014 a 21.019087,20.973794 0 0 0 -21.0199,20.974609 V 214.76376 a 11.25765,11.233391 0 0 0 11.25668,11.23242 h 1.09611 v 33.06836 h -40.14902 a 67.694288,67.694288 0 0 0 -67.6947,67.69531 V 606.80282 H 1237.9817 V 259.06454 h -2.4447 l 0.4423,-16.29883 c 0,0 -111.9666,-154.323648 -141.0852,-166.439452 v -0.115235 h -0.2936 c -0.2108,-0.08225 -0.4326,-0.183482 -0.6342,-0.25 -1.7251,-0.569156 -3.3834,-0.82209 -4.9795,-0.796875 z M 738.89647,138.83993 h 316.87223 c 1.6529,1.25338 49.1542,37.68928 103.8273,120.22461 H 738.89647 Z"
       transform="matrix(0.99784514,0,0,1,-233.15581,-7.1075077)" /><path
       style="fill:#d2d2d2;fill-opacity:1;stroke:none;stroke-width:0.509149"
       id="rect7"
       width="225.88499"
       height="150.36821"
       x="95.285027"
       y="68.409767"
       sodipodi:type="rect"
       inkscape:path-effect="#path-effect8"
       d="M 117.42931,68.409767 H 307.24375 A 13.926273,13.926273 45 0 1 321.17002,82.33604 V 204.85175 A 13.926224,13.926224 135 0 1 307.2438,218.77798 H 107.65653 A 12.371506,12.371506 45 0 1 95.285027,206.40647 l 0,-115.852423 a 22.14428,22.14428 135 0 1 22.144283,-22.14428 z" /><path
       style="fill:#4fda7f;fill-opacity:0.495;stroke:none;stroke-width:0.5"
       d="m 460.48589,124.70184 c 0,0 -7.22454,80.72638 -7.22454,93.60491 0,12.87853 3.45521,32.66748 6.91043,38.32147 3.45521,5.65399 6.59632,-39.2638 6.59632,-42.71902 0,-3.45521 -3.14111,-84.80981 -6.28221,-89.20736 z"
       id="path8" /><path
       style="fill:#4fda7f;fill-opacity:0.495;stroke:none;stroke-width:0.5"
       d="m 969.34479,598.38037 -0.31411,-282.38528 c 0,0 -54.027,268.56442 -51.82823,282.69939 2.19878,14.13497 52.14234,-0.31411 52.14234,-0.31411 z"
       id="path9" /><path
       style="fill:#4fda7f;fill-opacity:0.495;stroke:none;stroke-width:0.5"
       d="m 988.50552,248.14724 c 0,0 -129.09938,-152.343559 -130.35583,-159.568099 -1.25644,-7.22454 121.56074,130.984049 130.35583,159.568099 z"
       id="path10" /><path
       style="fill:#4fda7f;fill-opacity:0.495;stroke:none;stroke-width:0.5"
       d="m 9.6062409,598.75199 11.7718091,-0.0555 c 0,0 -3.787866,-267.62408 -4.416087,-273.27806 -0.628221,-5.65399 10.679755,-46.80246 47.116565,-49.00123 36.436812,-2.19877 6.282208,-4.08344 -2.198773,-4.08344 -8.480982,0 -34.866258,7.22454 -48.687117,42.71902 -13.82085886,35.49448 -3.5863971,283.69923 -3.5863971,283.69923 z"
       id="path11" /><path
       style="fill:#ababab;fill-opacity:0.8125;stroke:none;stroke-width:0.6209"
       d="m 118.75075,217.00109 c 0,0 -12.4141,-80.85943 -0.70936,-87.07939 11.70472,-6.21996 7.80315,72.49467 0.70936,87.07939 z"
       id="path12" /><path
       style="fill:#ababab;fill-opacity:0.8125;stroke:none;stroke-width:0.6209"
       d="m 147.71953,219.09403 c 0,0 -12.4141,-80.85943 -0.70936,-87.07939 11.70472,-6.21996 7.80315,72.49467 0.70936,87.07939 z"
       id="path12-4" /><path
       style="fill:#ababab;fill-opacity:0.8125;stroke:none;stroke-width:0.6209"
       d="m 177.16375,219.2066 c 0,0 -12.4141,-80.85943 -0.70936,-87.07939 11.70472,-6.21996 7.80315,72.49467 0.70936,87.07939 z"
       id="path12-4-7" /><path
       style="fill:#ababab;fill-opacity:0.8125;stroke:none;stroke-width:0.6209"
       d="m 207.61,219.2066 c 0,0 -12.4141,-80.85943 -0.70936,-87.07939 11.70472,-6.21996 7.80315,72.49467 0.70936,87.07939 z"
       id="path12-4-7-2" /><path
       style="fill:#ababab;fill-opacity:0.8125;stroke:none;stroke-width:0.6209"
       d="m 236.49641,218.98449 c 0,0 -12.4141,-80.85943 -0.70936,-87.07939 11.70472,-6.21996 7.80315,72.49467 0.70936,87.07939 z"
       id="path12-4-7-2-4" /><path
       style="fill:#ababab;fill-opacity:0.8125;stroke:none;stroke-width:0.6209"
       d="m 266.49742,219.54129 c 0,0 -12.4141,-80.85943 -0.70936,-87.07939 11.70472,-6.21996 7.80315,72.49467 0.70936,87.07939 z"
       id="path12-4-7-2-4-2" /><path
       style="fill:#ababab;fill-opacity:0.8125;stroke:none;stroke-width:0.6209"
       d="m 295.16375,219.65183 c 0,0 -12.4141,-80.85943 -0.70936,-87.07939 11.70472,-6.21996 7.80315,72.49467 0.70936,87.07939 z"
       id="path12-4-7-2-4-2-5" /></g></svg>
